<svg width="44" height="44" viewBox="0 0 44 44" fill="none" xmlns="http://www.w3.org/2000/svg">
<path fill-rule="evenodd" clip-rule="evenodd" d="M7.33333 9.16663C6.32082 9.16663 5.5 9.98745 5.5 11C5.5 12.0125 6.32082 12.8333 7.33333 12.8333H36.6667C37.6792 12.8333 38.5 12.0125 38.5 11C38.5 9.98745 37.6792 9.16663 36.6667 9.16663H7.33333ZM12.8333 22C12.8333 20.9874 13.6542 20.1666 14.6667 20.1666H36.6667C37.6792 20.1666 38.5 20.9874 38.5 22C38.5 23.0125 37.6792 23.8333 36.6667 23.8333H14.6667C13.6542 23.8333 12.8333 23.0125 12.8333 22ZM23.8333 33C23.8333 31.9874 24.6541 31.1666 25.6667 31.1666H36.6667C37.6792 31.1666 38.5 31.9874 38.5 33C38.5 34.0125 37.6792 34.8333 36.6667 34.8333H25.6667C24.6541 34.8333 23.8333 34.0125 23.8333 33Z" fill="currentColor"/>
</svg>
